<mxfile host="app.diagrams.net" modified="2022-03-30T09:05:44.166Z" agent="5.0 (Macintosh; Intel Mac OS X 10_15_7) AppleWebKit/537.36 (KHTML, like Gecko) Chrome/99.0.4844.84 Safari/537.36" etag="rw6lEFm7rqEJu7Eu-BFB" version="16.5.6" type="github">
  <diagram id="tFCrA8HCY2bKQqzYrnuj" name="모듈다이어그램">
    <mxGraphModel dx="1554" dy="914" grid="1" gridSize="10" guides="1" tooltips="1" connect="1" arrows="1" fold="1" page="1" pageScale="1" pageWidth="827" pageHeight="1169" math="0" shadow="0">
      <root>
        <mxCell id="0" />
        <mxCell id="1" parent="0" />
        <mxCell id="i3G74NsptF5IXXJmGlSM-5" value="" style="group" vertex="1" connectable="0" parent="1">
          <mxGeometry x="60" y="140" width="1500" height="350" as="geometry" />
        </mxCell>
        <mxCell id="i3G74NsptF5IXXJmGlSM-3" value="" style="whiteSpace=wrap;html=1;" vertex="1" parent="i3G74NsptF5IXXJmGlSM-5">
          <mxGeometry x="7" width="1500" height="350" as="geometry" />
        </mxCell>
        <mxCell id="i3G74NsptF5IXXJmGlSM-4" value="Main Layer" style="text;html=1;resizable=0;autosize=1;align=center;verticalAlign=middle;points=[];fillColor=none;strokeColor=none;rounded=0;fontStyle=1;fontSize=16;" vertex="1" parent="i3G74NsptF5IXXJmGlSM-5">
          <mxGeometry x="5" y="3" width="100" height="20" as="geometry" />
        </mxCell>
        <mxCell id="i3G74NsptF5IXXJmGlSM-92" style="edgeStyle=orthogonalEdgeStyle;rounded=0;orthogonalLoop=1;jettySize=auto;html=1;fontSize=16;" edge="1" parent="i3G74NsptF5IXXJmGlSM-5" source="i3G74NsptF5IXXJmGlSM-25" target="i3G74NsptF5IXXJmGlSM-90">
          <mxGeometry relative="1" as="geometry" />
        </mxCell>
        <mxCell id="i3G74NsptF5IXXJmGlSM-25" value="AppDelegate" style="rounded=0;whiteSpace=wrap;html=1;fontSize=16;" vertex="1" parent="i3G74NsptF5IXXJmGlSM-5">
          <mxGeometry x="315" y="70" width="120" height="60" as="geometry" />
        </mxCell>
        <mxCell id="i3G74NsptF5IXXJmGlSM-26" value="RootBuilder" style="rounded=0;whiteSpace=wrap;html=1;fontSize=16;fillColor=#fff2cc;strokeColor=#d6b656;" vertex="1" parent="i3G74NsptF5IXXJmGlSM-5">
          <mxGeometry x="684" y="70" width="120" height="60" as="geometry" />
        </mxCell>
        <mxCell id="i3G74NsptF5IXXJmGlSM-94" style="edgeStyle=orthogonalEdgeStyle;rounded=0;orthogonalLoop=1;jettySize=auto;html=1;fontSize=16;" edge="1" parent="i3G74NsptF5IXXJmGlSM-5" source="i3G74NsptF5IXXJmGlSM-90" target="i3G74NsptF5IXXJmGlSM-26">
          <mxGeometry relative="1" as="geometry" />
        </mxCell>
        <mxCell id="i3G74NsptF5IXXJmGlSM-90" value="RootScene" style="rounded=0;whiteSpace=wrap;html=1;fontSize=16;" vertex="1" parent="i3G74NsptF5IXXJmGlSM-5">
          <mxGeometry x="504" y="70" width="120" height="60" as="geometry" />
        </mxCell>
        <mxCell id="i3G74NsptF5IXXJmGlSM-6" value="" style="group" vertex="1" connectable="0" parent="1">
          <mxGeometry x="60" y="1680" width="1500" height="350" as="geometry" />
        </mxCell>
        <mxCell id="i3G74NsptF5IXXJmGlSM-7" value="" style="whiteSpace=wrap;html=1;" vertex="1" parent="i3G74NsptF5IXXJmGlSM-6">
          <mxGeometry width="1500" height="350" as="geometry" />
        </mxCell>
        <mxCell id="i3G74NsptF5IXXJmGlSM-8" value="&lt;b&gt;&lt;font style=&quot;font-size: 16px&quot;&gt;Framework Layer&lt;/font&gt;&lt;/b&gt;" style="text;html=1;resizable=0;autosize=1;align=center;verticalAlign=middle;points=[];fillColor=none;strokeColor=none;rounded=0;" vertex="1" parent="i3G74NsptF5IXXJmGlSM-6">
          <mxGeometry x="1" y="2" width="150" height="20" as="geometry" />
        </mxCell>
        <mxCell id="i3G74NsptF5IXXJmGlSM-39" value="Needle" style="html=1;dropTarget=0;fontSize=16;" vertex="1" parent="i3G74NsptF5IXXJmGlSM-6">
          <mxGeometry x="151" y="140" width="180" height="90" as="geometry" />
        </mxCell>
        <mxCell id="i3G74NsptF5IXXJmGlSM-40" value="" style="shape=module;jettyWidth=8;jettyHeight=4;fontSize=16;" vertex="1" parent="i3G74NsptF5IXXJmGlSM-39">
          <mxGeometry x="1" width="20" height="20" relative="1" as="geometry">
            <mxPoint x="-27" y="7" as="offset" />
          </mxGeometry>
        </mxCell>
        <mxCell id="i3G74NsptF5IXXJmGlSM-41" value="UnitTestSupport" style="html=1;dropTarget=0;fontSize=16;" vertex="1" parent="i3G74NsptF5IXXJmGlSM-6">
          <mxGeometry x="410" y="140" width="180" height="90" as="geometry" />
        </mxCell>
        <mxCell id="i3G74NsptF5IXXJmGlSM-42" value="" style="shape=module;jettyWidth=8;jettyHeight=4;fontSize=16;" vertex="1" parent="i3G74NsptF5IXXJmGlSM-41">
          <mxGeometry x="1" width="20" height="20" relative="1" as="geometry">
            <mxPoint x="-27" y="7" as="offset" />
          </mxGeometry>
        </mxCell>
        <mxCell id="i3G74NsptF5IXXJmGlSM-51" value="FoundationExt" style="html=1;dropTarget=0;fontSize=16;" vertex="1" parent="i3G74NsptF5IXXJmGlSM-6">
          <mxGeometry x="620" y="150" width="180" height="90" as="geometry" />
        </mxCell>
        <mxCell id="i3G74NsptF5IXXJmGlSM-52" value="" style="shape=module;jettyWidth=8;jettyHeight=4;fontSize=16;" vertex="1" parent="i3G74NsptF5IXXJmGlSM-51">
          <mxGeometry x="1" width="20" height="20" relative="1" as="geometry">
            <mxPoint x="-27" y="7" as="offset" />
          </mxGeometry>
        </mxCell>
        <mxCell id="i3G74NsptF5IXXJmGlSM-12" value="" style="group" vertex="1" connectable="0" parent="1">
          <mxGeometry x="70" y="510" width="1500" height="350" as="geometry" />
        </mxCell>
        <mxCell id="i3G74NsptF5IXXJmGlSM-13" value="" style="whiteSpace=wrap;html=1;" vertex="1" parent="i3G74NsptF5IXXJmGlSM-12">
          <mxGeometry width="1500" height="350" as="geometry" />
        </mxCell>
        <mxCell id="i3G74NsptF5IXXJmGlSM-14" value="Driver Layer" style="text;html=1;resizable=0;autosize=1;align=center;verticalAlign=middle;points=[];fillColor=none;strokeColor=none;rounded=0;fontStyle=1;fontSize=16;" vertex="1" parent="i3G74NsptF5IXXJmGlSM-12">
          <mxGeometry x="-1" y="3" width="110" height="20" as="geometry" />
        </mxCell>
        <mxCell id="i3G74NsptF5IXXJmGlSM-96" style="edgeStyle=orthogonalEdgeStyle;rounded=0;orthogonalLoop=1;jettySize=auto;html=1;fontSize=16;dashed=1;endArrow=block;endFill=0;" edge="1" parent="i3G74NsptF5IXXJmGlSM-12" source="i3G74NsptF5IXXJmGlSM-27" target="i3G74NsptF5IXXJmGlSM-37">
          <mxGeometry relative="1" as="geometry" />
        </mxCell>
        <mxCell id="i3G74NsptF5IXXJmGlSM-103" style="edgeStyle=orthogonalEdgeStyle;rounded=0;orthogonalLoop=1;jettySize=auto;html=1;fontSize=16;endArrow=classic;endFill=1;" edge="1" parent="i3G74NsptF5IXXJmGlSM-12" source="i3G74NsptF5IXXJmGlSM-27" target="i3G74NsptF5IXXJmGlSM-53">
          <mxGeometry relative="1" as="geometry">
            <Array as="points">
              <mxPoint x="190" y="90" />
              <mxPoint x="190" y="90" />
            </Array>
          </mxGeometry>
        </mxCell>
        <mxCell id="i3G74NsptF5IXXJmGlSM-104" style="edgeStyle=orthogonalEdgeStyle;rounded=0;orthogonalLoop=1;jettySize=auto;html=1;exitX=0.75;exitY=1;exitDx=0;exitDy=0;entryX=1;entryY=0.5;entryDx=0;entryDy=0;fontSize=16;endArrow=classic;endFill=1;" edge="1" parent="i3G74NsptF5IXXJmGlSM-12" source="i3G74NsptF5IXXJmGlSM-27" target="i3G74NsptF5IXXJmGlSM-88">
          <mxGeometry relative="1" as="geometry">
            <Array as="points">
              <mxPoint x="218" y="120" />
              <mxPoint x="218" y="205" />
            </Array>
          </mxGeometry>
        </mxCell>
        <mxCell id="i3G74NsptF5IXXJmGlSM-27" value="ViewConroller" style="rounded=0;whiteSpace=wrap;html=1;fontSize=16;fillColor=#fff2cc;strokeColor=#d6b656;" vertex="1" parent="i3G74NsptF5IXXJmGlSM-12">
          <mxGeometry x="200" y="60" width="120" height="60" as="geometry" />
        </mxCell>
        <mxCell id="i3G74NsptF5IXXJmGlSM-98" style="edgeStyle=orthogonalEdgeStyle;rounded=0;orthogonalLoop=1;jettySize=auto;html=1;fontSize=16;endArrow=classic;endFill=1;" edge="1" parent="i3G74NsptF5IXXJmGlSM-12" source="i3G74NsptF5IXXJmGlSM-28" target="i3G74NsptF5IXXJmGlSM-37">
          <mxGeometry relative="1" as="geometry" />
        </mxCell>
        <mxCell id="i3G74NsptF5IXXJmGlSM-28" value="Presenter" style="rounded=0;whiteSpace=wrap;html=1;fontSize=16;fillColor=#fff2cc;strokeColor=#d6b656;" vertex="1" parent="i3G74NsptF5IXXJmGlSM-12">
          <mxGeometry x="521" y="60" width="120" height="60" as="geometry" />
        </mxCell>
        <mxCell id="i3G74NsptF5IXXJmGlSM-101" style="edgeStyle=orthogonalEdgeStyle;rounded=0;orthogonalLoop=1;jettySize=auto;html=1;fontSize=16;endArrow=classic;endFill=1;" edge="1" parent="i3G74NsptF5IXXJmGlSM-12" source="i3G74NsptF5IXXJmGlSM-29" target="i3G74NsptF5IXXJmGlSM-30">
          <mxGeometry relative="1" as="geometry" />
        </mxCell>
        <mxCell id="i3G74NsptF5IXXJmGlSM-29" value="router" style="rounded=0;whiteSpace=wrap;html=1;fontSize=16;fillColor=#fff2cc;strokeColor=#d6b656;" vertex="1" parent="i3G74NsptF5IXXJmGlSM-12">
          <mxGeometry x="680" y="270" width="120" height="60" as="geometry" />
        </mxCell>
        <mxCell id="i3G74NsptF5IXXJmGlSM-102" style="edgeStyle=orthogonalEdgeStyle;rounded=0;orthogonalLoop=1;jettySize=auto;html=1;fontSize=16;endArrow=classic;endFill=1;" edge="1" parent="i3G74NsptF5IXXJmGlSM-12" source="i3G74NsptF5IXXJmGlSM-30" target="i3G74NsptF5IXXJmGlSM-31">
          <mxGeometry relative="1" as="geometry" />
        </mxCell>
        <mxCell id="i3G74NsptF5IXXJmGlSM-30" value="ViewTransiton" style="rounded=0;whiteSpace=wrap;html=1;fontSize=16;" vertex="1" parent="i3G74NsptF5IXXJmGlSM-12">
          <mxGeometry x="680" y="174" width="120" height="60" as="geometry" />
        </mxCell>
        <mxCell id="i3G74NsptF5IXXJmGlSM-31" value="Scene" style="ellipse;whiteSpace=wrap;html=1;fontSize=16;" vertex="1" parent="i3G74NsptF5IXXJmGlSM-12">
          <mxGeometry x="680" y="50" width="120" height="80" as="geometry" />
        </mxCell>
        <mxCell id="i3G74NsptF5IXXJmGlSM-37" value="DisplayLogic" style="ellipse;whiteSpace=wrap;html=1;fontSize=16;fillColor=#fff2cc;strokeColor=#d6b656;" vertex="1" parent="i3G74NsptF5IXXJmGlSM-12">
          <mxGeometry x="361" y="50" width="120" height="80" as="geometry" />
        </mxCell>
        <mxCell id="i3G74NsptF5IXXJmGlSM-53" value="DesignSystem" style="html=1;dropTarget=0;fontSize=16;" vertex="1" parent="i3G74NsptF5IXXJmGlSM-12">
          <mxGeometry y="50" width="180" height="90" as="geometry" />
        </mxCell>
        <mxCell id="i3G74NsptF5IXXJmGlSM-54" value="" style="shape=module;jettyWidth=8;jettyHeight=4;fontSize=16;" vertex="1" parent="i3G74NsptF5IXXJmGlSM-53">
          <mxGeometry x="1" width="20" height="20" relative="1" as="geometry">
            <mxPoint x="-27" y="7" as="offset" />
          </mxGeometry>
        </mxCell>
        <mxCell id="i3G74NsptF5IXXJmGlSM-55" value="AmplitudeAdapter" style="rounded=0;whiteSpace=wrap;html=1;fontSize=16;" vertex="1" parent="i3G74NsptF5IXXJmGlSM-12">
          <mxGeometry x="1210" y="80" width="170" height="50" as="geometry" />
        </mxCell>
        <mxCell id="i3G74NsptF5IXXJmGlSM-56" value="FirebaseAdapter" style="rounded=0;whiteSpace=wrap;html=1;fontSize=16;" vertex="1" parent="i3G74NsptF5IXXJmGlSM-12">
          <mxGeometry x="1210" y="145" width="160" height="60" as="geometry" />
        </mxCell>
        <mxCell id="i3G74NsptF5IXXJmGlSM-88" value="UIKitExt" style="html=1;dropTarget=0;fontSize=16;" vertex="1" parent="i3G74NsptF5IXXJmGlSM-12">
          <mxGeometry y="160" width="180" height="90" as="geometry" />
        </mxCell>
        <mxCell id="i3G74NsptF5IXXJmGlSM-89" value="" style="shape=module;jettyWidth=8;jettyHeight=4;fontSize=16;" vertex="1" parent="i3G74NsptF5IXXJmGlSM-88">
          <mxGeometry x="1" width="20" height="20" relative="1" as="geometry">
            <mxPoint x="-27" y="7" as="offset" />
          </mxGeometry>
        </mxCell>
        <mxCell id="i3G74NsptF5IXXJmGlSM-18" value="" style="group;dashed=1;" vertex="1" connectable="0" parent="1">
          <mxGeometry x="70" y="890" width="1500" height="350" as="geometry" />
        </mxCell>
        <mxCell id="i3G74NsptF5IXXJmGlSM-19" value="" style="whiteSpace=wrap;html=1;" vertex="1" parent="i3G74NsptF5IXXJmGlSM-18">
          <mxGeometry width="1500" height="350" as="geometry" />
        </mxCell>
        <mxCell id="i3G74NsptF5IXXJmGlSM-20" value="Adapter Layer" style="text;html=1;resizable=0;autosize=1;align=center;verticalAlign=middle;points=[];fillColor=none;strokeColor=none;rounded=0;fontStyle=1;fontSize=16;" vertex="1" parent="i3G74NsptF5IXXJmGlSM-18">
          <mxGeometry x="-1" y="2" width="120" height="20" as="geometry" />
        </mxCell>
        <mxCell id="i3G74NsptF5IXXJmGlSM-71" value="TrackingIntegratorProtocol" style="ellipse;whiteSpace=wrap;html=1;fontSize=16;" vertex="1" parent="i3G74NsptF5IXXJmGlSM-18">
          <mxGeometry x="1050" y="70" width="230" height="90" as="geometry" />
        </mxCell>
        <mxCell id="i3G74NsptF5IXXJmGlSM-57" value="Logger" style="rounded=0;whiteSpace=wrap;html=1;fontSize=16;" vertex="1" parent="i3G74NsptF5IXXJmGlSM-18">
          <mxGeometry x="990" y="190" width="120" height="60" as="geometry" />
        </mxCell>
        <mxCell id="i3G74NsptF5IXXJmGlSM-21" value="" style="group" vertex="1" connectable="0" parent="1">
          <mxGeometry x="70" y="1280" width="1500" height="350" as="geometry" />
        </mxCell>
        <mxCell id="i3G74NsptF5IXXJmGlSM-22" value="" style="whiteSpace=wrap;html=1;" vertex="1" parent="i3G74NsptF5IXXJmGlSM-21">
          <mxGeometry width="1500" height="350" as="geometry" />
        </mxCell>
        <mxCell id="i3G74NsptF5IXXJmGlSM-23" value="&lt;b&gt;&lt;font style=&quot;font-size: 16px&quot;&gt;Usercase Layer&lt;/font&gt;&lt;/b&gt;" style="text;html=1;resizable=0;autosize=1;align=center;verticalAlign=middle;points=[];fillColor=none;strokeColor=none;rounded=0;" vertex="1" parent="i3G74NsptF5IXXJmGlSM-21">
          <mxGeometry y="4" width="130" height="20" as="geometry" />
        </mxCell>
        <mxCell id="i3G74NsptF5IXXJmGlSM-107" style="edgeStyle=orthogonalEdgeStyle;rounded=0;orthogonalLoop=1;jettySize=auto;html=1;dashed=1;fontSize=16;endArrow=blockThin;endFill=0;" edge="1" parent="i3G74NsptF5IXXJmGlSM-21" source="i3G74NsptF5IXXJmGlSM-32" target="i3G74NsptF5IXXJmGlSM-36">
          <mxGeometry relative="1" as="geometry" />
        </mxCell>
        <mxCell id="i3G74NsptF5IXXJmGlSM-108" style="edgeStyle=orthogonalEdgeStyle;rounded=0;orthogonalLoop=1;jettySize=auto;html=1;fontSize=16;endArrow=classic;endFill=1;" edge="1" parent="i3G74NsptF5IXXJmGlSM-21" source="i3G74NsptF5IXXJmGlSM-32" target="i3G74NsptF5IXXJmGlSM-35">
          <mxGeometry relative="1" as="geometry">
            <Array as="points">
              <mxPoint x="340" y="280" />
              <mxPoint x="340" y="104" />
            </Array>
          </mxGeometry>
        </mxCell>
        <mxCell id="i3G74NsptF5IXXJmGlSM-109" style="edgeStyle=orthogonalEdgeStyle;rounded=0;orthogonalLoop=1;jettySize=auto;html=1;entryX=0;entryY=0.5;entryDx=0;entryDy=0;fontSize=16;endArrow=classic;endFill=1;" edge="1" parent="i3G74NsptF5IXXJmGlSM-21" source="i3G74NsptF5IXXJmGlSM-32" target="i3G74NsptF5IXXJmGlSM-34">
          <mxGeometry relative="1" as="geometry" />
        </mxCell>
        <mxCell id="i3G74NsptF5IXXJmGlSM-128" style="edgeStyle=orthogonalEdgeStyle;rounded=0;orthogonalLoop=1;jettySize=auto;html=1;fontSize=16;endArrow=classic;endFill=1;" edge="1" parent="i3G74NsptF5IXXJmGlSM-21" source="i3G74NsptF5IXXJmGlSM-32" target="i3G74NsptF5IXXJmGlSM-126">
          <mxGeometry relative="1" as="geometry">
            <Array as="points">
              <mxPoint x="340" y="280" />
              <mxPoint x="340" y="200" />
              <mxPoint x="640" y="200" />
              <mxPoint x="640" y="110" />
            </Array>
          </mxGeometry>
        </mxCell>
        <mxCell id="i3G74NsptF5IXXJmGlSM-32" value="Interactor" style="rounded=0;whiteSpace=wrap;html=1;fontSize=16;fillColor=#fff2cc;strokeColor=#d6b656;" vertex="1" parent="i3G74NsptF5IXXJmGlSM-21">
          <mxGeometry x="201" y="250" width="120" height="60" as="geometry" />
        </mxCell>
        <mxCell id="i3G74NsptF5IXXJmGlSM-110" style="edgeStyle=orthogonalEdgeStyle;rounded=0;orthogonalLoop=1;jettySize=auto;html=1;fontSize=16;endArrow=block;endFill=0;dashed=1;" edge="1" parent="i3G74NsptF5IXXJmGlSM-21" source="i3G74NsptF5IXXJmGlSM-33" target="i3G74NsptF5IXXJmGlSM-34">
          <mxGeometry relative="1" as="geometry" />
        </mxCell>
        <mxCell id="i3G74NsptF5IXXJmGlSM-33" value="worker" style="rounded=0;whiteSpace=wrap;html=1;fontSize=16;fillColor=#fff2cc;strokeColor=#d6b656;" vertex="1" parent="i3G74NsptF5IXXJmGlSM-21">
          <mxGeometry x="730" y="250" width="120" height="60" as="geometry" />
        </mxCell>
        <mxCell id="i3G74NsptF5IXXJmGlSM-34" value="workingLogic" style="ellipse;whiteSpace=wrap;html=1;fontSize=16;fillColor=#fff2cc;strokeColor=#d6b656;" vertex="1" parent="i3G74NsptF5IXXJmGlSM-21">
          <mxGeometry x="502" y="240" width="120" height="80" as="geometry" />
        </mxCell>
        <mxCell id="i3G74NsptF5IXXJmGlSM-35" value="PresentationLogic" style="ellipse;whiteSpace=wrap;html=1;fontSize=16;fillColor=#fff2cc;strokeColor=#d6b656;" vertex="1" parent="i3G74NsptF5IXXJmGlSM-21">
          <mxGeometry x="387" y="68" width="160" height="80" as="geometry" />
        </mxCell>
        <mxCell id="i3G74NsptF5IXXJmGlSM-36" value="ReqeustLogic" style="ellipse;whiteSpace=wrap;html=1;fontSize=16;fillColor=#fff2cc;strokeColor=#d6b656;" vertex="1" parent="i3G74NsptF5IXXJmGlSM-21">
          <mxGeometry x="201" y="70" width="120" height="80" as="geometry" />
        </mxCell>
        <mxCell id="i3G74NsptF5IXXJmGlSM-72" value="Logging" style="ellipse;whiteSpace=wrap;html=1;fontSize=16;" vertex="1" parent="i3G74NsptF5IXXJmGlSM-21">
          <mxGeometry x="920" y="24" width="160" height="90" as="geometry" />
        </mxCell>
        <mxCell id="i3G74NsptF5IXXJmGlSM-73" value="TrackingEvent" style="rounded=0;whiteSpace=wrap;html=1;fontSize=16;" vertex="1" parent="i3G74NsptF5IXXJmGlSM-21">
          <mxGeometry x="1150" y="140" width="120" height="60" as="geometry" />
        </mxCell>
        <mxCell id="i3G74NsptF5IXXJmGlSM-74" value="TrackingModel" style="rounded=0;whiteSpace=wrap;html=1;fontSize=16;" vertex="1" parent="i3G74NsptF5IXXJmGlSM-21">
          <mxGeometry x="1020" y="250" width="120" height="60" as="geometry" />
        </mxCell>
        <mxCell id="i3G74NsptF5IXXJmGlSM-126" value="RoutingLogic" style="ellipse;whiteSpace=wrap;html=1;fontSize=16;fillColor=#fff2cc;strokeColor=#d6b656;" vertex="1" parent="i3G74NsptF5IXXJmGlSM-21">
          <mxGeometry x="681" y="70" width="120" height="80" as="geometry" />
        </mxCell>
        <mxCell id="i3G74NsptF5IXXJmGlSM-95" style="edgeStyle=orthogonalEdgeStyle;rounded=0;orthogonalLoop=1;jettySize=auto;html=1;fontSize=16;" edge="1" parent="1" source="i3G74NsptF5IXXJmGlSM-25" target="i3G74NsptF5IXXJmGlSM-27">
          <mxGeometry relative="1" as="geometry">
            <Array as="points">
              <mxPoint x="330" y="240" />
            </Array>
          </mxGeometry>
        </mxCell>
        <mxCell id="i3G74NsptF5IXXJmGlSM-100" style="edgeStyle=orthogonalEdgeStyle;rounded=0;orthogonalLoop=1;jettySize=auto;html=1;fontSize=16;endArrow=block;endFill=0;dashed=1;" edge="1" parent="1" source="i3G74NsptF5IXXJmGlSM-90" target="i3G74NsptF5IXXJmGlSM-31">
          <mxGeometry relative="1" as="geometry">
            <Array as="points">
              <mxPoint x="624" y="360" />
              <mxPoint x="810" y="360" />
            </Array>
          </mxGeometry>
        </mxCell>
        <mxCell id="i3G74NsptF5IXXJmGlSM-105" style="edgeStyle=orthogonalEdgeStyle;rounded=0;orthogonalLoop=1;jettySize=auto;html=1;entryX=1;entryY=0.5;entryDx=0;entryDy=0;fontSize=16;endArrow=blockThin;endFill=0;dashed=1;" edge="1" parent="1" source="i3G74NsptF5IXXJmGlSM-28" target="i3G74NsptF5IXXJmGlSM-35">
          <mxGeometry relative="1" as="geometry">
            <Array as="points">
              <mxPoint x="651" y="1388" />
            </Array>
          </mxGeometry>
        </mxCell>
        <mxCell id="i3G74NsptF5IXXJmGlSM-106" style="edgeStyle=orthogonalEdgeStyle;rounded=0;orthogonalLoop=1;jettySize=auto;html=1;fontSize=16;endArrow=classic;endFill=1;" edge="1" parent="1" source="i3G74NsptF5IXXJmGlSM-27" target="i3G74NsptF5IXXJmGlSM-36">
          <mxGeometry relative="1" as="geometry" />
        </mxCell>
        <mxCell id="i3G74NsptF5IXXJmGlSM-127" style="edgeStyle=orthogonalEdgeStyle;rounded=0;orthogonalLoop=1;jettySize=auto;html=1;dashed=1;fontSize=16;endArrow=block;endFill=0;" edge="1" parent="1" source="i3G74NsptF5IXXJmGlSM-29" target="i3G74NsptF5IXXJmGlSM-126">
          <mxGeometry relative="1" as="geometry" />
        </mxCell>
      </root>
    </mxGraphModel>
  </diagram>
</mxfile>
